# xmcd CD database file
#
# Track frame offsets:
#	150
#	11647
#	24927
#	35860
#	49255
#	59437
#	70945
#	83757
#	107575
#	120577
#	139825
#	153807
#
# Disc length: 2265 seconds
#
# Revision: 1
# Processed by: cddbd v1.4PL0 Copyright (c) Steve Scherf et al.
# Submitted via: CDValet v3.40 - Copyright (c) 1996 - 1998 Greg Leichner
#
DISCID=9a08d70c
DTITLE=Various Artist - Doobie Shea Records Essential Sampler
DYEAR=1900
DGENRE=
TTITLE0=Dan Tyminski - Carry Me Across The Mountain
TTITLE1=Jeanette Williams - Cherry Blossoms In The Springtime
TTITLE2=Ernie Thacker - Traveling The Highway Home
TTITLE3=Don Rigsby - Bootleg John
TTITLE4=Unlimited Tradition - She's Gone
TTITLE5=Living On The Hallelujah Side - Leaning On The Everlast
TTITLE5=ing Arms
TTITLE6=The Grasshoppers - River Of Tears
TTITLE7=Christmas At Doobie Shea - Greensleeves
TTITLE8=Mountain Heart - It's The Love
TTITLE9=Kane's River - Take Me Back Home
TTITLE10=Scottie Sparks - The Old 109
TTITLE11=Tony and Gary Williamson - Sweet Hour Of Prayer
EXTD=
EXTT0=
EXTT1=
EXTT2=
EXTT3=
EXTT4=
EXTT5=
EXTT6=
EXTT7=
EXTT8=
EXTT9=
EXTT10=
EXTT11=
PLAYORDER=
